# xmcd
# 
# Track frame offsets:
#     150
#     63378
#     98215
#     152864
# 
# Disc length: 2669
# 
# Revision: 0
# Processed by: cddbd v1.5.2PL0 Copyright (c) Steve Scherf et al.
# Submitted via: fre:ac v1.0.17
# 
DISCID=2d0a6b04
DTITLE=Various Artist - Shibi Chapka 2
DYEAR=0
DGENRE=Asia
TTITLE0=Various Artist - Chokpyok-ka
TTITLE1=Various Artist - Ch'urin-ga
TTITLE2=Various Artist - Pangmul-ga
TTITLE3=Various Artist - Sonyu-ga
EXTD=
EXTT0=
EXTT1=
EXTT2=
EXTT3=
PLAYORDER=
